# xmcd
# 
# Track frame offsets:
#     150
#     21664
#     43884
#     62778
#     96426
#     119300
#     132624
#     152608
#     177682
#     199707
#     216404
#     233268
#     255548
#     269444
#     287733
#     303532
# 
# Disc length: 4303
# 
# Revision: 1
# Processed by: cddbd v1.5.2PL0 Copyright (c) Steve Scherf et al.
# Submitted via: BonkEnc v1.0.8
# 
DISCID=fa10cd10
DTITLE=Eagles - The Very Best Of [CD 2)
DYEAR=2003
DGENRE=Classic Rock
TTITLE0=Life In The Fast Lane
TTITLE1=Wasted Time
TTITLE2=Victim Of Love
TTITLE3=The Last Resort
TTITLE4=New Kid In Town
TTITLE5=Please Come Home For Christmas
TTITLE6=Heartache Tonight
TTITLE7=The Sad Café
TTITLE8=I Can't Tell You Why
TTITLE9=The Long Run
TTITLE10=In The City
TTITLE11=Those Shoes
TTITLE12=Seven Bridges Road (Live)
TTITLE13=Love Will Keep Us Alive
TTITLE14=Get Over It
TTITLE15=Hole In The World
EXTD=YEAR: 2003
EXTT0=
EXTT1=
EXTT2=
EXTT3=
EXTT4=
EXTT5=
EXTT6=
EXTT7=
EXTT8=
EXTT9=
EXTT10=
EXTT11=
EXTT12=
EXTT13=
EXTT14=
EXTT15=
PLAYORDER=
